<svg width="164" height="68" viewBox="0 0 164 68" fill="none" xmlns="http://www.w3.org/2000/svg">
<path d="M1.16016 51.9102C7.06836 46.4316 10.0225 40.0293 10.0225 32.7031C10.0225 28.5137 9.0127 23.916 6.99316 18.9102C5.68262 18.3516 3.88867 18.0723 1.61133 18.0723C1.52539 18.0723 1.43945 18.0723 1.35352 18.0723L12.085 9.53223C15.458 11.6807 17.7031 14.4521 18.8203 17.8467L24.8789 9.53223C33.1074 13.8076 39.7354 17.2344 44.7627 19.8125C38.9834 22.8633 35.0625 24.9473 33 26.0645C34.5684 29.6094 36.0938 33.165 37.5762 36.7314C39.0801 40.2764 40.7236 43.7568 42.5068 47.1729C43.3877 48.8916 44.9131 49.9658 47.083 50.3955C45.2354 51.6846 43.377 52.9629 41.5078 54.2305C39.6602 55.4766 37.8125 56.7334 35.9648 58.001C32.0117 48.0537 27.6074 38.375 22.752 28.9648C24.2559 27.998 25.7598 27.0205 27.2637 26.0322C28.7676 25.0225 30.2822 24.0234 31.8076 23.0352C28.9502 21.4023 25.8672 19.5869 22.5586 17.5889L19.4971 21.7783C19.5186 22.1221 19.5293 22.4658 19.5293 22.8096C19.5293 29.083 16.5537 36.9463 10.6025 46.3994L19.1748 49.2998C19.6689 49.4717 20.3242 49.5576 21.1406 49.5576C21.957 49.5576 23.042 49.375 24.3955 49.0098L16.6289 58.001L1.16016 51.9102Z" fill="#00EEFF"/>
<path d="M48.1758 28.2607C48.835 28.2607 49.437 28.3311 49.9819 28.4717C50.5356 28.6123 51.0234 28.7837 51.4453 28.9858C51.876 29.188 52.2451 29.4033 52.5527 29.6318C52.8691 29.8604 53.1196 30.0669 53.3042 30.2515C53.5767 30.0405 53.8711 29.8516 54.1875 29.6846C54.5039 29.5088 54.8247 29.3594 55.1499 29.2363C55.4751 29.1133 55.7959 29.021 56.1123 28.9595C56.4375 28.8892 56.7451 28.8452 57.0352 28.8276L57.1934 29.2627C56.8418 29.4033 56.5254 29.6318 56.2441 29.9482C56.0068 30.2207 55.7871 30.5942 55.585 31.0688C55.3828 31.5435 55.2729 32.1631 55.2554 32.9277C55.2466 33.376 55.2422 33.8418 55.2422 34.3252C55.2422 34.8086 55.2378 35.2876 55.229 35.7622C55.229 36.228 55.2246 36.6763 55.2158 37.1069C55.2158 37.5288 55.2114 37.9067 55.2026 38.2407C55.2026 38.5747 55.2026 38.8472 55.2026 39.0581C55.2026 39.2603 55.2026 39.3789 55.2026 39.4141C55.2026 40.1787 55.2993 40.7983 55.4927 41.2729C55.6948 41.7476 55.9189 42.1211 56.165 42.3936C56.4551 42.71 56.7803 42.9385 57.1406 43.0791L56.9824 43.5142C56.5518 43.4966 56.0903 43.4219 55.5981 43.29C55.106 43.1582 54.627 42.9736 54.1611 42.7363C53.6953 42.499 53.2646 42.2178 52.8691 41.8926C52.4736 41.5586 52.1528 41.1807 51.9067 40.7588C51.731 41.0928 51.5068 41.418 51.2344 41.7344C50.9619 42.0508 50.6279 42.332 50.2324 42.5781C49.8369 42.8242 49.3711 43.022 48.835 43.1714C48.2988 43.3296 47.6836 43.4087 46.9893 43.4087C45.8467 43.4087 44.8403 43.2065 43.9702 42.8022C43.1089 42.3892 42.3882 41.853 41.8081 41.1938C41.228 40.5259 40.7886 39.7744 40.4897 38.9395C40.1997 38.1045 40.0547 37.2607 40.0547 36.4082C40.0547 35.7666 40.1294 35.1206 40.2788 34.4702C40.437 33.8198 40.6655 33.1958 40.9644 32.5981C41.272 31.9917 41.6499 31.4248 42.0981 30.8975C42.5552 30.3701 43.0825 29.9131 43.6802 29.5264C44.2866 29.1309 44.9634 28.8232 45.7104 28.6035C46.4575 28.375 47.2793 28.2607 48.1758 28.2607ZM48.2285 42.0244C48.8438 42.0244 49.3535 41.8838 49.7578 41.6025C50.1621 41.3213 50.4829 40.9785 50.7202 40.5742C50.9663 40.1699 51.1465 39.7437 51.2607 39.2954C51.375 38.8472 51.4541 38.4517 51.498 38.1089L51.6035 33.1123C51.5859 32.9277 51.5508 32.7036 51.498 32.4399C51.4541 32.1763 51.3838 31.9038 51.2871 31.6226C51.1904 31.3413 51.063 31.0601 50.9048 30.7788C50.7554 30.4888 50.562 30.2339 50.3247 30.0142C50.0874 29.7944 49.8018 29.6143 49.4678 29.4736C49.1426 29.333 48.7603 29.2627 48.3208 29.2627C47.6616 29.2627 47.064 29.4297 46.5278 29.7637C45.9917 30.0977 45.5347 30.5547 45.1567 31.1348C44.7788 31.7061 44.4844 32.374 44.2734 33.1387C44.0713 33.9033 43.9702 34.7163 43.9702 35.5776C43.9702 36.7026 44.0889 37.6694 44.3262 38.478C44.5723 39.2866 44.8931 39.9546 45.2886 40.4819C45.6929 41.0093 46.1499 41.4004 46.6597 41.6553C47.1694 41.9014 47.6924 42.0244 48.2285 42.0244ZM58.6831 29.6582C58.9292 29.1748 59.083 28.6958 59.1445 28.2212C59.2148 27.7378 59.25 27.3159 59.25 26.9556C59.25 26.8589 59.2456 26.7754 59.2368 26.7051C59.2368 26.626 59.2368 26.5601 59.2368 26.5073C59.228 26.4458 59.2236 26.3887 59.2236 26.3359L59.7114 26.2568C59.7378 26.6523 59.8433 26.9907 60.0278 27.272C60.2212 27.5532 60.4541 27.7905 60.7266 27.9839C61.0078 28.1685 61.3154 28.3179 61.6494 28.4321C61.9834 28.5464 62.313 28.6343 62.6382 28.6958C62.9634 28.7485 63.2622 28.7837 63.5347 28.8013C63.8159 28.8188 64.0444 28.8276 64.2202 28.8276H74.5298C74.2925 29.3198 74.1387 29.8032 74.0684 30.2778C73.998 30.7524 73.9629 31.1699 73.9629 31.5303C73.9629 31.627 73.9629 31.7148 73.9629 31.7939C73.9629 31.8643 73.9673 31.9258 73.9761 31.9785C73.9761 32.04 73.9805 32.0972 73.9893 32.1499L73.5146 32.229C73.4795 31.8335 73.3652 31.4951 73.1719 31.2139C72.9873 30.9326 72.7544 30.6997 72.4731 30.5151C72.2007 30.3218 71.8975 30.168 71.5635 30.0537C71.2295 29.9395 70.8999 29.856 70.5747 29.8032C70.2583 29.7417 69.9595 29.7021 69.6782 29.6846C69.397 29.667 69.1729 29.6582 69.0059 29.6582H68.7554C67.9204 29.7021 67.1733 29.9087 66.5142 30.2778C65.8638 30.6382 65.3101 31.1172 64.853 31.7148C64.4048 32.3037 64.0576 32.9805 63.8115 33.7451C63.5742 34.5098 63.4512 35.3096 63.4424 36.1445C63.4424 36.9795 63.5127 37.7837 63.6533 38.5571C63.7939 39.3218 64.0181 39.9985 64.3257 40.5874C64.6333 41.1763 65.0376 41.6465 65.5386 41.998C66.0396 42.3408 66.646 42.5122 67.3579 42.5122C67.8765 42.5122 68.3247 42.4287 68.7026 42.2617C69.0806 42.0947 69.4058 41.8662 69.6782 41.5762C69.9507 41.2773 70.1836 40.9302 70.377 40.5347C70.5703 40.1392 70.7417 39.7085 70.8911 39.2427L73.9893 40.2974C73.6729 40.7456 73.3081 41.1587 72.895 41.5366C72.4907 41.9146 72.0205 42.2441 71.4844 42.5254C70.957 42.7979 70.3594 43.0132 69.6914 43.1714C69.0234 43.3296 68.272 43.4087 67.437 43.4087C66.5493 43.4087 65.7363 43.312 64.998 43.1187C64.2686 42.9253 63.6094 42.6572 63.0205 42.3145C62.4404 41.9717 61.9307 41.5718 61.4912 41.1147C61.0605 40.6489 60.7002 40.1479 60.4102 39.6118C60.1201 39.0757 59.9048 38.5176 59.7642 37.9375C59.6235 37.3574 59.5532 36.7773 59.5532 36.1973C59.5532 35.459 59.6631 34.7603 59.8828 34.1011C60.1025 33.4331 60.4189 32.8223 60.832 32.2686C61.2539 31.7061 61.7725 31.2051 62.3877 30.7656C63.0029 30.3262 63.7061 29.957 64.4971 29.6582H58.6831ZM83.231 43H75.8218V42.5122C76.1909 42.5122 76.4897 42.4771 76.7183 42.4067C76.9556 42.3276 77.1401 42.2266 77.272 42.1035C77.4038 41.9717 77.4917 41.8267 77.5356 41.6685C77.5884 41.5015 77.6147 41.3257 77.6147 41.1411V30.6338C77.6147 30.502 77.5884 30.3613 77.5356 30.2119C77.4917 30.0537 77.4038 29.9131 77.272 29.79C77.1401 29.6582 76.9556 29.5527 76.7183 29.4736C76.4897 29.3857 76.1909 29.3418 75.8218 29.3418V28.8276H83.231V29.3418C82.8794 29.3418 82.585 29.377 82.3477 29.4473C82.1191 29.5176 81.9346 29.6099 81.7939 29.7241C81.6621 29.8384 81.5698 29.9746 81.5171 30.1328C81.4644 30.2822 81.438 30.4404 81.438 30.6074V33.9561C81.7456 34.5625 82.1147 35.2129 82.5454 35.9072C82.9761 36.5928 83.4814 37.2783 84.0615 37.9639C84.6416 38.6494 85.3052 39.3086 86.0522 39.9414C86.7993 40.5742 87.6387 41.1367 88.5703 41.6289V30.7129C88.5703 30.5811 88.5483 30.436 88.5044 30.2778C88.4692 30.1108 88.3857 29.9614 88.2539 29.8296C88.1309 29.689 87.9507 29.5747 87.7134 29.4868C87.4849 29.3901 87.1772 29.3418 86.7905 29.3418V28.8276H94.1865V29.3418C93.835 29.3418 93.5449 29.377 93.3164 29.4473C93.0879 29.5176 92.9033 29.6099 92.7627 29.7241C92.6309 29.8384 92.5386 29.9746 92.4858 30.1328C92.4331 30.2822 92.4067 30.4404 92.4067 30.6074V41.2202C92.4067 41.3521 92.4287 41.4927 92.4727 41.6421C92.5254 41.7915 92.6177 41.9321 92.7495 42.064C92.8813 42.187 93.0615 42.2925 93.29 42.3804C93.5186 42.4683 93.8174 42.5122 94.1865 42.5122V43H88.5703C87.9287 42.8418 87.2739 42.5737 86.606 42.1958C85.9468 41.8179 85.3052 41.3916 84.6812 40.917C84.0659 40.4336 83.4771 39.9282 82.9146 39.4009C82.3608 38.8735 81.8687 38.3813 81.438 37.9243V41.1411C81.438 41.2729 81.46 41.418 81.5039 41.5762C81.5479 41.7344 81.6313 41.8838 81.7544 42.0244C81.8862 42.1562 82.0664 42.2705 82.2949 42.3672C82.5322 42.4639 82.8442 42.5122 83.231 42.5122V43ZM100.211 34.7603C100.194 34.9536 100.185 35.1426 100.185 35.3271C100.185 35.5029 100.185 35.6831 100.185 35.8677C100.185 36.7026 100.238 37.5156 100.343 38.3066C100.449 39.0977 100.642 39.8008 100.923 40.416C101.213 41.0312 101.613 41.5322 102.123 41.9189C102.633 42.2969 103.292 42.4946 104.101 42.5122C104.619 42.5122 105.081 42.4287 105.485 42.2617C105.898 42.0947 106.258 41.8662 106.566 41.5762C106.874 41.2773 107.137 40.9302 107.357 40.5347C107.577 40.1392 107.761 39.7085 107.911 39.2427L111.022 40.2974C110.706 40.7456 110.328 41.1587 109.888 41.5366C109.449 41.9146 108.943 42.2441 108.372 42.5254C107.81 42.7979 107.177 43.0132 106.474 43.1714C105.779 43.3296 105.015 43.4087 104.18 43.4087C103.239 43.4087 102.387 43.3032 101.622 43.0923C100.857 42.8901 100.172 42.6089 99.5654 42.2485C98.9678 41.8882 98.4448 41.4663 97.9966 40.9829C97.5571 40.4907 97.188 39.9678 96.8892 39.4141C96.5991 38.8604 96.3838 38.2847 96.2432 37.687C96.1025 37.0894 96.0322 36.5005 96.0322 35.9204C96.0322 35.3667 96.0938 34.7998 96.2168 34.2197C96.3486 33.6309 96.5508 33.0552 96.8232 32.4927C97.0957 31.9302 97.4385 31.4028 97.8516 30.9106C98.2734 30.4097 98.7744 29.9702 99.3545 29.5923C99.9434 29.2144 100.616 28.9155 101.372 28.6958C102.127 28.4761 102.976 28.3662 103.916 28.3662C105.296 28.3662 106.469 28.5376 107.436 28.8804C108.412 29.2231 109.211 29.689 109.835 30.2778C110.468 30.8579 110.938 31.5347 111.246 32.3081C111.562 33.0815 111.756 33.8989 111.826 34.7603H100.211ZM103.995 29.2891C103.354 29.2891 102.809 29.4077 102.36 29.645C101.921 29.8823 101.556 30.2075 101.266 30.6206C100.976 31.0337 100.752 31.5215 100.594 32.084C100.444 32.6377 100.334 33.2354 100.264 33.877H107.7C107.647 33.2441 107.55 32.6509 107.41 32.0972C107.278 31.5435 107.071 31.0601 106.79 30.647C106.518 30.2251 106.153 29.8955 105.696 29.6582C105.248 29.4121 104.681 29.2891 103.995 29.2891ZM117.719 43.2637C117.095 43.2637 116.585 43.2417 116.19 43.1978C115.803 43.1626 115.482 43.1187 115.228 43.0659C114.981 43.0132 114.779 42.9692 114.621 42.9341C114.463 42.8901 114.3 42.8682 114.133 42.8682C114.204 42.5693 114.252 42.2969 114.278 42.0508C114.305 41.8047 114.318 41.5806 114.318 41.3784C114.318 41.0796 114.292 40.8027 114.239 40.5479C114.186 40.2842 114.125 40.0117 114.054 39.7305L114.502 39.7041C114.696 40.126 114.977 40.4995 115.346 40.8247C115.724 41.1411 116.142 41.4092 116.599 41.6289C117.064 41.8486 117.548 42.0156 118.049 42.1299C118.55 42.2441 119.024 42.3013 119.473 42.3013C120.026 42.3013 120.519 42.231 120.949 42.0903C121.38 41.9409 121.745 41.7388 122.043 41.4839C122.342 41.229 122.566 40.9258 122.716 40.5742C122.874 40.2227 122.953 39.8359 122.953 39.4141C122.953 38.9658 122.861 38.6011 122.676 38.3198C122.5 38.0298 122.254 37.7969 121.938 37.6211C121.622 37.4453 121.252 37.3179 120.831 37.2388C120.409 37.1509 119.956 37.0806 119.473 37.0278C119.104 36.9927 118.708 36.9487 118.286 36.896C117.864 36.8433 117.442 36.7642 117.021 36.6587C116.599 36.5532 116.19 36.4126 115.794 36.2368C115.408 36.061 115.065 35.8369 114.766 35.5645C114.467 35.292 114.226 34.9624 114.041 34.5757C113.865 34.1802 113.777 33.7144 113.777 33.1782C113.777 32.5454 113.905 31.9917 114.16 31.5171C114.415 31.0425 114.749 30.6338 115.162 30.291C115.583 29.9482 116.067 29.667 116.612 29.4473C117.157 29.2275 117.715 29.0562 118.286 28.9331C118.866 28.8013 119.438 28.709 120 28.6562C120.571 28.6035 121.09 28.5771 121.556 28.5771C122.382 28.5771 123.103 28.6211 123.718 28.709C124.342 28.7881 124.865 28.8276 125.287 28.8276C125.199 29.1353 125.137 29.4341 125.102 29.7241C125.076 30.0054 125.062 30.2559 125.062 30.4756C125.062 30.7568 125.084 31.0293 125.128 31.293C125.181 31.5479 125.251 31.8159 125.339 32.0972L124.878 32.1235C124.72 31.7544 124.566 31.416 124.417 31.1084C124.276 30.792 124.056 30.5239 123.757 30.3042C123.467 30.0757 123.059 29.8999 122.531 29.7769C122.004 29.645 121.274 29.5791 120.343 29.5791C120.044 29.5791 119.732 29.6318 119.407 29.7373C119.082 29.834 118.783 29.9878 118.51 30.1987C118.247 30.4009 118.027 30.6558 117.851 30.9634C117.675 31.271 117.587 31.6313 117.587 32.0444C117.587 32.5894 117.706 33.02 117.943 33.3364C118.189 33.6528 118.484 33.8989 118.827 34.0747C119.169 34.2417 119.525 34.356 119.895 34.4175C120.264 34.4702 120.576 34.5054 120.831 34.5229C121.147 34.5493 121.512 34.5889 121.925 34.6416C122.347 34.6943 122.773 34.7778 123.204 34.8921C123.643 34.9976 124.074 35.1382 124.496 35.314C124.917 35.4897 125.295 35.7183 125.629 35.9995C125.963 36.2808 126.231 36.6235 126.434 37.0278C126.636 37.4233 126.737 37.8936 126.737 38.4385C126.737 39.1592 126.605 39.7788 126.341 40.2974C126.078 40.8159 125.717 41.2554 125.26 41.6157C124.812 41.9673 124.285 42.2529 123.678 42.4727C123.081 42.6924 122.448 42.8594 121.78 42.9736C121.112 43.0879 120.431 43.1626 119.736 43.1978C119.042 43.2417 118.37 43.2637 117.719 43.2637ZM135.807 43H128.24V42.5122C128.609 42.5122 128.908 42.4771 129.136 42.4067C129.365 42.3276 129.545 42.2266 129.677 42.1035C129.809 41.9717 129.896 41.8267 129.94 41.6685C129.993 41.5015 130.02 41.3257 130.02 41.1411V26.5864C130.02 26.4546 129.993 26.314 129.94 26.1646C129.896 26.0151 129.809 25.8789 129.677 25.7559C129.545 25.624 129.365 25.5142 129.136 25.4263C128.908 25.3384 128.609 25.2944 128.24 25.2944V24.8066H134.014V31.2007C134.19 30.8931 134.401 30.5942 134.647 30.3042C134.893 30.0054 135.179 29.7329 135.504 29.4868C135.838 29.2407 136.211 29.0254 136.625 28.8408C137.046 28.6562 137.521 28.5156 138.048 28.4189C138.787 28.2871 139.446 28.2651 140.026 28.353C140.606 28.4409 141.116 28.6079 141.555 28.854C141.995 29.1001 142.368 29.4165 142.676 29.8032C142.983 30.1812 143.234 30.603 143.427 31.0688C143.621 31.5347 143.761 32.0312 143.849 32.5586C143.937 33.0859 143.981 33.6133 143.981 34.1406V41.1411C143.981 41.2729 144.003 41.418 144.047 41.5762C144.091 41.7344 144.174 41.8838 144.297 42.0244C144.42 42.1562 144.596 42.2705 144.825 42.3672C145.062 42.4639 145.374 42.5122 145.761 42.5122V43H138.365V42.5122C138.734 42.5122 139.033 42.4771 139.261 42.4067C139.49 42.3276 139.67 42.2266 139.802 42.1035C139.934 41.9717 140.021 41.8267 140.065 41.6685C140.118 41.5015 140.145 41.3257 140.145 41.1411V33.3364C140.145 32.6509 140.065 32.0708 139.907 31.5962C139.749 31.1216 139.538 30.748 139.274 30.4756C139.011 30.1943 138.703 30.0098 138.352 29.9219C138 29.834 137.626 29.8384 137.231 29.9351C136.686 30.0669 136.211 30.2998 135.807 30.6338C135.412 30.959 135.082 31.3545 134.818 31.8203C134.563 32.2773 134.37 32.7915 134.238 33.3628C134.106 33.9341 134.032 34.5273 134.014 35.1426V41.1411C134.014 41.2729 134.036 41.418 134.08 41.5762C134.124 41.7344 134.208 41.8838 134.331 42.0244C134.462 42.1562 134.643 42.2705 134.871 42.3672C135.108 42.4639 135.42 42.5122 135.807 42.5122V43Z" fill="#00EEFF"/>
</svg>
