<svg xmlns="http://www.w3.org/2000/svg" xmlns:xlink="http://www.w3.org/1999/xlink" viewBox="0 0 1328 592" width="664" height="296"><path d="M 155.887,90.383 C 157.025,96.809 156.922,96.824 157.957,103.266" stroke-width="5.398" stroke="black" fill="none" stroke-linecap="round"></path><path d="M 157.957,103.266 C 159.125,110.091 158.944,110.102 159.727,116.969" stroke-width="3.557" stroke="black" fill="none" stroke-linecap="round"></path><path d="M 159.727,116.969 C 160.341,125.320 160.455,125.300 160.617,133.684" stroke-width="3.497" stroke="black" fill="none" stroke-linecap="round"></path><path d="M 160.617,133.684 C 161.384,142.611 160.911,142.565 160.867,151.457" stroke-width="3.117" stroke="black" fill="none" stroke-linecap="round"></path><path d="M 160.867,151.457 C 160.758,159.536 160.409,159.292 158.668,167.047" stroke-width="2.914" stroke="black" fill="none" stroke-linecap="round"></path><path d="M 158.668,167.047 C 156.650,173.981 156.809,173.726 152.969,179.836" stroke-width="2.974" stroke="black" fill="none" stroke-linecap="round"></path><path d="M 152.969,179.836 C 149.606,184.823 149.908,184.704 145.184,188.492" stroke-width="3.270" stroke="black" fill="none" stroke-linecap="round"></path><path d="M 145.184,188.492 C 141.228,191.613 141.499,191.549 136.754,193.289" stroke-width="3.429" stroke="black" fill="none" stroke-linecap="round"></path><path d="M 136.754,193.289 C 132.513,195.269 132.943,194.717 128.613,194.699" stroke-width="3.671" stroke="black" fill="none" stroke-linecap="round"></path><path d="M 128.613,194.699 C 123.373,194.071 124.413,194.085 120.555,190.922" stroke-width="3.631" stroke="black" fill="none" stroke-linecap="round"></path><path d="M 120.555,190.922 C 115.828,185.174 116.123,185.971 114.113,178.500" stroke-width="3.231" stroke="black" fill="none" stroke-linecap="round"></path><path d="M 114.113,178.500 C 111.803,166.777 111.207,167.192 111.313,154.957" stroke-width="2.559" stroke="black" fill="none" stroke-linecap="round"></path><path d="M 111.313,154.957 C 110.142,137.528 110.596,137.695 111.699,120.336" stroke-width="2.020" stroke="black" fill="none" stroke-linecap="round"></path><path d="M 111.699,120.336 C 113.091,101.049 113.416,101.385 117.859,82.672" stroke-width="1.755" stroke="black" fill="none" stroke-linecap="round"></path><path d="M 117.859,82.672 C 122.309,67.219 121.829,67.371 129.176,52.980" stroke-width="1.894" stroke="black" fill="none" stroke-linecap="round"></path><path d="M 129.176,52.980 C 134.358,42.289 134.193,42.577 141.629,33.387" stroke-width="2.158" stroke="black" fill="none" stroke-linecap="round"></path><path d="M 141.629,33.387 C 147.080,26.320 146.862,26.979 154.184,22.359" stroke-width="2.592" stroke="black" fill="none" stroke-linecap="round"></path><path d="M 154.184,22.359 C 161.120,18.516 160.182,19.015 167.832,18.777" stroke-width="2.858" stroke="black" fill="none" stroke-linecap="round"></path><path d="M 167.832,18.777 C 175.645,19.084 173.919,19.014 179.781,23.355" stroke-width="3.095" stroke="black" fill="none" stroke-linecap="round"></path><path d="M 179.781,23.355 C 184.651,30.533 185.201,28.953 186.945,38.516" stroke-width="2.906" stroke="black" fill="none" stroke-linecap="round"></path><path d="M 186.945,38.516 C 189.650,49.949 190.139,49.627 190.758,61.543" stroke-width="2.509" stroke="black" fill="none" stroke-linecap="round"></path><path d="M 190.758,61.543 C 192.166,74.928 192.025,74.809 191.695,88.234" stroke-width="2.214" stroke="black" fill="none" stroke-linecap="round"></path><path d="M 191.695,88.234 C 191.716,99.791 191.297,99.473 189.020,110.633" stroke-width="2.352" stroke="black" fill="none" stroke-linecap="round"></path><path d="M 189.020,110.633 C 186.440,119.765 186.802,119.551 181.867,127.754" stroke-width="2.523" stroke="black" fill="none" stroke-linecap="round"></path><path d="M 181.867,127.754 C 177.277,136.015 177.360,135.627 170.859,142.355" stroke-width="2.651" stroke="black" fill="none" stroke-linecap="round"></path><path d="M 170.859,142.355 C 165.365,147.737 165.771,147.383 158.855,150.488" stroke-width="2.909" stroke="black" fill="none" stroke-linecap="round"></path><path d="M 158.855,150.488 C 152.771,153.373 153.908,152.579 147.945,152.039" stroke-width="3.244" stroke="black" fill="none" stroke-linecap="round"></path><path d="M 147.945,152.039 C 142.365,149.699 143.525,150.817 140.363,145.375" stroke-width="3.439" stroke="black" fill="none" stroke-linecap="round"></path><path d="M 140.363,145.375 C 138.055,137.893 137.345,138.855 137.906,130.352" stroke-width="3.029" stroke="black" fill="none" stroke-linecap="round"></path><path d="M 137.906,130.352 C 137.549,121.538 137.740,121.912 139.734,113.414" stroke-width="2.809" stroke="black" fill="none" stroke-linecap="round"></path><path d="M 139.734,113.414 C 142.175,105.202 141.867,105.484 146.543,98.242" stroke-width="2.888" stroke="black" fill="none" stroke-linecap="round"></path><path d="M 146.543,98.242 C 150.413,92.309 150.095,92.582 155.574,88.176" stroke-width="2.999" stroke="black" fill="none" stroke-linecap="round"></path><path d="M 155.574,88.176 C 159.279,85.683 158.743,85.639 163.203,84.902" stroke-width="3.459" stroke="black" fill="none" stroke-linecap="round"></path><path d="M 163.203,84.902 C 166.515,84.250 165.596,84.427 168.207,85.664" stroke-width="4.029" stroke="black" fill="none" stroke-linecap="round"></path><path d="M 168.207,85.664 C 169.888,88.143 170.097,87.243 170.367,90.887" stroke-width="4.162" stroke="black" fill="none" stroke-linecap="round"></path><path d="M 170.367,90.887 C 171.264,95.646 171.162,95.442 170.754,100.262" stroke-width="3.710" stroke="black" fill="none" stroke-linecap="round"></path><path d="M 170.754,100.262 C 170.155,105.627 170.184,105.416 168.207,110.426" stroke-width="3.546" stroke="black" fill="none" stroke-linecap="round"></path><path d="M 168.207,110.426 C 166.176,114.491 166.539,114.535 163.523,118.078" stroke-width="3.640" stroke="black" fill="none" stroke-linecap="round"></path><path d="M 163.523,118.078 C 161.529,120.575 161.656,120.604 159.168,122.652" stroke-width="3.906" stroke="black" fill="none" stroke-linecap="round"></path><path d="M 159.168,122.652 C 153.833,124.283 156.895,124.653 154.254,126.234" stroke-width="4.474" stroke="black" fill="none" stroke-linecap="round"></path><path d="M 154.254,126.234 C 157.989,129.290 154.919,129.316 161.340,132.719" stroke-width="4.698" stroke="black" fill="none" stroke-linecap="round"></path><path d="M 161.340,132.719 C 164.266,135.999 164.405,135.856 167.086,139.367" stroke-width="4.398" stroke="black" fill="none" stroke-linecap="round"></path><path d="M 167.086,139.367 C 170.284,143.395 170.387,143.309 173.582,147.340" stroke-width="3.668" stroke="black" fill="none" stroke-linecap="round"></path><path d="M 173.582,147.340 C 176.781,151.381 176.880,151.284 180.277,155.145" stroke-width="3.494" stroke="black" fill="none" stroke-linecap="round"></path><path d="M 180.277,155.145 C 183.560,158.720 183.566,158.685 187.152,161.949" stroke-width="3.557" stroke="black" fill="none" stroke-linecap="round"></path><path d="M 187.152,161.949 C 190.405,164.694 190.310,164.788 193.777,167.281" stroke-width="3.690" stroke="black" fill="none" stroke-linecap="round"></path><path d="M 193.777,167.281 C 196.196,169.299 196.256,169.183 198.855,170.926" stroke-width="3.976" stroke="black" fill="none" stroke-linecap="round"></path><path d="M 198.855,170.926 C 201.773,173.779 201.652,172.637 204.688,173.957" stroke-width="4.451" stroke="black" fill="none" stroke-linecap="round"></path><path d="M 213.426,152.773 C 213.403,148.559 212.383,149.615 211.340,146.457" stroke-width="5.505" stroke="black" fill="none" stroke-linecap="round"></path><path d="M 211.340,146.457 C 208.358,144.560 209.474,144.556 205.566,144.766" stroke-width="5.157" stroke="black" fill="none" stroke-linecap="round"></path><path d="M 205.566,144.766 C 202.464,145.334 203.006,144.954 200.637,147.246" stroke-width="4.931" stroke="black" fill="none" stroke-linecap="round"></path><path d="M 200.637,147.246 C 197.997,150.332 198.104,149.896 196.848,153.891" stroke-width="4.706" stroke="black" fill="none" stroke-linecap="round"></path><path d="M 196.848,153.891 C 196.075,157.520 195.758,157.264 196.160,161.109" stroke-width="4.812" stroke="black" fill="none" stroke-linecap="round"></path><path d="M 196.160,161.109 C 195.648,165.923 196.222,163.713 197.141,166.277" stroke-width="5.088" stroke="black" fill="none" stroke-linecap="round"></path><path d="M 197.141,166.277 C 200.695,165.075 199.094,166.741 203.051,162.746" stroke-width="5.158" stroke="black" fill="none" stroke-linecap="round"></path><path d="M 203.051,162.746 C 204.396,160.446 204.867,160.952 205.484,158.031" stroke-width="4.950" stroke="black" fill="none" stroke-linecap="round"></path><path d="M 205.484,158.031 C 205.730,153.776 206.535,155.700 207.328,153.254" stroke-width="5.062" stroke="black" fill="none" stroke-linecap="round"></path><path d="M 207.328,153.254 C 210.142,156.595 209.017,152.702 212.059,155.883" stroke-width="5.346" stroke="black" fill="none" stroke-linecap="round"></path><path d="M 212.059,155.883 C 214.716,153.139 214.689,154.906 216.422,149.875" stroke-width="5.051" stroke="black" fill="none" stroke-linecap="round"></path><path d="M 216.422,149.875 C 218.415,145.335 218.692,145.531 220.012,140.668" stroke-width="4.749" stroke="black" fill="none" stroke-linecap="round"></path><path d="M 220.012,140.668 C 220.971,138.128 220.875,138.144 221.344,135.492" stroke-width="4.363" stroke="black" fill="none" stroke-linecap="round"></path><path d="M 221.344,135.492 C 222.217,131.015 221.965,131.099 222.000,126.609" stroke-width="4.409" stroke="black" fill="none" stroke-linecap="round"></path><path d="M 222.000,126.609 C 221.797,122.964 221.829,123.132 220.566,119.727" stroke-width="4.583" stroke="black" fill="none" stroke-linecap="round"></path><path d="M 220.566,119.727 C 218.773,114.744 219.522,116.978 217.449,114.637" stroke-width="4.708" stroke="black" fill="none" stroke-linecap="round"></path><path d="M 217.449,114.637 C 215.548,116.917 216.338,114.547 215.695,119.332" stroke-width="5.170" stroke="black" fill="none" stroke-linecap="round"></path><path d="M 215.695,119.332 C 217.022,125.356 216.058,125.275 218.469,131.352" stroke-width="3.858" stroke="black" fill="none" stroke-linecap="round"></path><path d="M 218.469,131.352 C 220.267,138.479 220.192,138.497 222.035,145.613" stroke-width="3.159" stroke="black" fill="none" stroke-linecap="round"></path><path d="M 222.035,145.613 C 223.380,151.014 223.374,151.016 224.684,156.426" stroke-width="3.268" stroke="black" fill="none" stroke-linecap="round"></path><path d="M 224.684,156.426 C 225.520,160.291 225.609,160.268 226.492,164.121" stroke-width="3.648" stroke="black" fill="none" stroke-linecap="round"></path><path d="M 226.492,164.121 C 226.289,169.016 227.352,167.508 228.348,170.859" stroke-width="4.433" stroke="black" fill="none" stroke-linecap="round"></path><path d="M 208.883,134.461 C 211.972,134.170 211.969,134.145 215.055,133.828" stroke-width="5.479" stroke="black" fill="none" stroke-linecap="round"></path><path d="M 215.055,133.828 C 218.356,133.385 218.364,133.461 221.668,133.043" stroke-width="4.387" stroke="black" fill="none" stroke-linecap="round"></path><path d="M 221.668,133.043 C 224.945,132.696 224.944,132.705 228.230,132.469" stroke-width="4.277" stroke="black" fill="none" stroke-linecap="round"></path><path d="M 223.496,138.648 C 225.092,143.311 225.174,143.279 226.852,147.910" stroke-width="5.449" stroke="black" fill="none" stroke-linecap="round"></path><path d="M 226.852,147.910 C 228.320,155.297 228.176,151.373 229.664,154.773" stroke-width="4.800" stroke="black" fill="none" stroke-linecap="round"></path><path d="M 229.664,154.773 C 231.710,150.208 231.466,154.072 233.145,145.461" stroke-width="5.096" stroke="black" fill="none" stroke-linecap="round"></path><path d="M 233.145,145.461 C 233.063,138.862 234.354,141.458 234.953,137.273" stroke-width="4.673" stroke="black" fill="none" stroke-linecap="round"></path><path d="M 234.953,137.273 C 237.266,138.612 236.147,136.270 239.313,140.277" stroke-width="5.122" stroke="black" fill="none" stroke-linecap="round"></path><path d="M 239.313,140.277 C 240.835,142.992 241.350,141.934 243.121,143.918" stroke-width="5.367" stroke="black" fill="none" stroke-linecap="round"></path><path d="M 243.121,143.918 C 246.243,144.853 245.649,144.942 248.941,144.176" stroke-width="5.361" stroke="black" fill="none" stroke-linecap="round"></path><path d="M 248.941,144.176 C 251.857,143.275 251.458,143.544 253.551,141.301" stroke-width="5.269" stroke="black" fill="none" stroke-linecap="round"></path><path d="M 253.551,141.301 C 256.727,137.739 255.381,139.168 255.988,135.961" stroke-width="5.166" stroke="black" fill="none" stroke-linecap="round"></path><path d="M 255.988,135.961 C 252.668,133.483 255.292,134.284 250.680,134.391" stroke-width="5.370" stroke="black" fill="none" stroke-linecap="round"></path><path d="M 250.680,134.391 C 248.282,136.900 248.398,135.432 247.449,139.859" stroke-width="5.205" stroke="black" fill="none" stroke-linecap="round"></path><path d="M 247.449,139.859 C 246.061,143.865 246.583,142.939 247.281,146.469" stroke-width="5.045" stroke="black" fill="none" stroke-linecap="round"></path><path d="M 247.281,146.469 C 249.402,148.939 248.288,148.617 251.902,149.363" stroke-width="5.198" stroke="black" fill="none" stroke-linecap="round"></path><path d="M 251.902,149.363 C 255.174,149.606 254.611,149.823 257.699,148.238" stroke-width="4.892" stroke="black" fill="none" stroke-linecap="round"></path><path d="M 257.699,148.238 C 261.828,145.415 261.930,145.946 265.414,142.043" stroke-width="4.505" stroke="black" fill="none" stroke-linecap="round"></path><path d="M 265.414,142.043 C 267.496,139.781 267.633,139.957 269.309,137.320" stroke-width="4.240" stroke="black" fill="none" stroke-linecap="round"></path><path d="M 269.309,137.320 C 271.183,134.908 271.099,134.890 272.621,132.262" stroke-width="4.128" stroke="black" fill="none" stroke-linecap="round"></path><path d="M 272.621,132.262 C 273.840,129.832 273.908,129.894 274.758,127.293" stroke-width="4.225" stroke="black" fill="none" stroke-linecap="round"></path><path d="M 274.758,127.293 C 275.785,124.765 275.672,124.765 276.285,122.129" stroke-width="4.213" stroke="black" fill="none" stroke-linecap="round"></path><path d="M 276.285,122.129 C 277.532,118.184 277.002,118.351 277.191,114.465" stroke-width="4.466" stroke="black" fill="none" stroke-linecap="round"></path><path d="M 277.191,114.465 C 276.605,109.502 276.959,111.930 275.141,109.621" stroke-width="4.885" stroke="black" fill="none" stroke-linecap="round"></path><path d="M 275.141,109.621 C 271.219,111.780 273.095,109.787 270.172,115.035" stroke-width="5.083" stroke="black" fill="none" stroke-linecap="round"></path><path d="M 270.172,115.035 C 269.441,120.005 268.803,119.290 270.309,124.641" stroke-width="4.552" stroke="black" fill="none" stroke-linecap="round"></path><path d="M 270.309,124.641 C 271.815,128.193 271.006,128.364 273.301,131.754" stroke-width="4.575" stroke="black" fill="none" stroke-linecap="round"></path><path d="M 273.301,131.754 C 274.438,137.497 274.267,134.070 275.211,136.395" stroke-width="5.062" stroke="black" fill="none" stroke-linecap="round"></path><path d="M 275.211,136.395 C 277.380,130.160 277.237,133.503 278.898,123.766" stroke-width="5.166" stroke="black" fill="none" stroke-linecap="round"></path><path d="M 278.898,123.766 C 280.770,115.063 280.952,115.117 282.355,106.309" stroke-width="3.116" stroke="black" fill="none" stroke-linecap="round"></path><path d="M 282.355,106.309 C 284.329,95.359 284.337,95.364 286.031,84.367" stroke-width="2.607" stroke="black" fill="none" stroke-linecap="round"></path><path d="M 286.031,84.367 C 287.463,74.790 287.513,74.800 288.723,65.191" stroke-width="2.623" stroke="black" fill="none" stroke-linecap="round"></path><path d="M 288.723,65.191 C 289.564,58.311 289.625,58.320 290.355,51.426" stroke-width="2.885" stroke="black" fill="none" stroke-linecap="round"></path><path d="M 290.355,51.426 C 290.726,46.920 290.871,46.940 291.336,42.449" stroke-width="3.395" stroke="black" fill="none" stroke-linecap="round"></path><path d="M 291.336,42.449 C 291.899,35.765 291.742,39.475 292.387,36.535" stroke-width="4.259" stroke="black" fill="none" stroke-linecap="round"></path><path d="M 292.387,36.535 C 293.021,41.596 293.214,37.841 293.965,46.602" stroke-width="4.286" stroke="black" fill="none" stroke-linecap="round"></path><path d="M 293.965,46.602 C 295.630,55.577 295.654,55.565 297.652,64.473" stroke-width="2.973" stroke="black" fill="none" stroke-linecap="round"></path><path d="M 297.652,64.473 C 300.540,76.732 300.444,76.751 303.594,88.949" stroke-width="2.441" stroke="black" fill="none" stroke-linecap="round"></path><path d="M 303.594,88.949 C 306.460,100.494 306.478,100.488 309.527,111.984" stroke-width="2.373" stroke="black" fill="none" stroke-linecap="round"></path><path d="M 309.527,111.984 C 311.601,119.467 311.530,119.486 313.734,126.934" stroke-width="2.743" stroke="black" fill="none" stroke-linecap="round"></path><path d="M 313.734,126.934 C 315.110,131.798 315.123,131.794 316.570,136.637" stroke-width="3.201" stroke="black" fill="none" stroke-linecap="round"></path><path d="M 316.570,136.637 C 316.874,141.542 317.392,139.359 318.297,142.055" stroke-width="3.849" stroke="black" fill="none" stroke-linecap="round"></path><path d="M 318.297,142.055 C 320.722,140.697 319.558,142.509 321.938,138.570" stroke-width="4.719" stroke="black" fill="none" stroke-linecap="round"></path><path d="M 321.938,138.570 C 322.121,133.960 323.720,135.452 324.293,131.566" stroke-width="4.632" stroke="black" fill="none" stroke-linecap="round"></path><path d="M 324.293,131.566 C 327.491,129.482 325.797,129.909 329.289,130.469" stroke-width="5.036" stroke="black" fill="none" stroke-linecap="round"></path><path d="M 329.289,130.469 C 330.137,133.943 331.481,131.672 332.273,135.945" stroke-width="4.818" stroke="black" fill="none" stroke-linecap="round"></path><path d="M 332.273,135.945 C 334.842,138.282 334.047,137.607 337.109,137.797" stroke-width="5.145" stroke="black" fill="none" stroke-linecap="round"></path><path d="M 337.109,137.797 C 340.343,135.559 340.549,137.061 343.688,133.504" stroke-width="4.688" stroke="black" fill="none" stroke-linecap="round"></path><path d="M 222.398,189.250 C 229.373,186.338 229.408,186.428 236.418,183.605" stroke-width="5.336" stroke="black" fill="none" stroke-linecap="round"></path><path d="M 236.418,183.605 C 252.687,177.218 252.711,177.287 269.074,171.148" stroke-width="2.368" stroke="black" fill="none" stroke-linecap="round"></path><path d="M 269.074,171.148 C 294.931,161.633 294.910,161.579 320.863,152.328" stroke-width="1.731" stroke="black" fill="none" stroke-linecap="round"></path><path d="M 320.863,152.328 C 345.810,143.564 345.751,143.398 370.715,134.680" stroke-width="1.410" stroke="black" fill="none" stroke-linecap="round"></path><path d="M 370.715,134.680 C 387.421,128.798 387.394,128.730 404.031,122.660" stroke-width="1.677" stroke="black" fill="none" stroke-linecap="round"></path><path d="M 404.031,122.660 C 414.139,118.792 414.182,118.909 424.238,114.902" stroke-width="2.432" stroke="black" fill="none" stroke-linecap="round"></path><path d="M 424.238,114.902 C 429.957,112.688 429.961,112.698 435.676,110.473" stroke-width="3.007" stroke="black" fill="none" stroke-linecap="round"></path><circle r="1.5" cx="347.1875" cy="128.77734375" fill="black"></circle><circle r="1.5" cx="352.30078125" cy="121.88671875" fill="black"></circle><circle r="1.5" cx="358.12109375" cy="112.12109375" fill="black"></circle></svg>